<svg width="18" height="18" viewBox="0 0 18 18" fill="none" xmlns="http://www.w3.org/2000/svg">
<path fill-rule="evenodd" clip-rule="evenodd" d="M2.78366 0.666687H5.60033C6.77533 0.666687 7.71699 1.62502 7.71699 2.80085V5.64169C7.71699 6.82502 6.77533 7.77502 5.60033 7.77502H2.78366C1.61699 7.77502 0.666992 6.82502 0.666992 5.64169V2.80085C0.666992 1.62502 1.61699 0.666687 2.78366 0.666687ZM2.78366 10.2248H5.60033C6.77533 10.2248 7.71699 11.1756 7.71699 12.3589V15.1998C7.71699 16.3748 6.77533 17.3331 5.60033 17.3331H2.78366C1.61699 17.3331 0.666992 16.3748 0.666992 15.1998V12.3589C0.666992 11.1756 1.61699 10.2248 2.78366 10.2248ZM15.2171 0.666687H12.4004C11.2254 0.666687 10.2837 1.62502 10.2837 2.80085V5.64169C10.2837 6.82502 11.2254 7.77502 12.4004 7.77502H15.2171C16.3837 7.77502 17.3337 6.82502 17.3337 5.64169V2.80085C17.3337 1.62502 16.3837 0.666687 15.2171 0.666687ZM12.4004 10.2248H15.2171C16.3837 10.2248 17.3337 11.1756 17.3337 12.3589V15.1998C17.3337 16.3748 16.3837 17.3331 15.2171 17.3331H12.4004C11.2254 17.3331 10.2837 16.3748 10.2837 15.1998V12.3589C10.2837 11.1756 11.2254 10.2248 12.4004 10.2248Z" fill="#0096C7"/>
</svg>
