<svg width="18" height="18" viewBox="0 0 18 18" fill="none" xmlns="http://www.w3.org/2000/svg">
<path fill-rule="evenodd" clip-rule="evenodd" d="M1.5 4.41667C1.5 2.22899 1.52342 1.5 4.41667 1.5C7.30991 1.5 7.33333 2.22899 7.33333 4.41667C7.33333 6.60434 7.34256 7.33333 4.41667 7.33333C1.49077 7.33333 1.5 6.60434 1.5 4.41667Z" stroke="#9E9E9E" stroke-width="1.5" stroke-linecap="round" stroke-linejoin="round"/>
<path fill-rule="evenodd" clip-rule="evenodd" d="M10.667 4.41667C10.667 2.22899 10.6904 1.5 13.5837 1.5C16.4769 1.5 16.5003 2.22899 16.5003 4.41667C16.5003 6.60434 16.5096 7.33333 13.5837 7.33333C10.6578 7.33333 10.667 6.60434 10.667 4.41667Z" stroke="#9E9E9E" stroke-width="1.5" stroke-linecap="round" stroke-linejoin="round"/>
<path fill-rule="evenodd" clip-rule="evenodd" d="M1.5 13.5834C1.5 11.3957 1.52342 10.6667 4.41667 10.6667C7.30991 10.6667 7.33333 11.3957 7.33333 13.5834C7.33333 15.771 7.34256 16.5 4.41667 16.5C1.49077 16.5 1.5 15.771 1.5 13.5834Z" stroke="#9E9E9E" stroke-width="1.5" stroke-linecap="round" stroke-linejoin="round"/>
<path fill-rule="evenodd" clip-rule="evenodd" d="M10.667 13.5834C10.667 11.3957 10.6904 10.6667 13.5837 10.6667C16.4769 10.6667 16.5003 11.3957 16.5003 13.5834C16.5003 15.771 16.5096 16.5 13.5837 16.5C10.6578 16.5 10.667 15.771 10.667 13.5834Z" stroke="#9E9E9E" stroke-width="1.5" stroke-linecap="round" stroke-linejoin="round"/>
</svg>
