<svg width="16" height="18" viewBox="0 0 16 18" fill="none" xmlns="http://www.w3.org/2000/svg">
<path fill-rule="evenodd" clip-rule="evenodd" d="M11.0967 13.1447H5.08008C4.73508 13.1447 4.45508 12.8647 4.45508 12.5197C4.45508 12.1747 4.73508 11.8947 5.08008 11.8947H11.0967C11.4417 11.8947 11.7217 12.1747 11.7217 12.5197C11.7217 12.8647 11.4417 13.1447 11.0967 13.1447" fill="#9E9E9E"/>
<path fill-rule="evenodd" clip-rule="evenodd" d="M11.0967 9.65601H5.08008C4.73508 9.65601 4.45508 9.37601 4.45508 9.03101C4.45508 8.68601 4.73508 8.40601 5.08008 8.40601H11.0967C11.4417 8.40601 11.7217 8.68601 11.7217 9.03101C11.7217 9.37601 11.4417 9.65601 11.0967 9.65601" fill="#9E9E9E"/>
<path fill-rule="evenodd" clip-rule="evenodd" d="M7.37494 6.17529H5.0791C4.7341 6.17529 4.4541 5.89529 4.4541 5.55029C4.4541 5.20529 4.7341 4.92529 5.0791 4.92529H7.37494C7.71994 4.92529 7.99994 5.20529 7.99994 5.55029C7.99994 5.89529 7.71994 6.17529 7.37494 6.17529" fill="#9E9E9E"/>
<mask id="mask0_1568_5915" style="mask-type:luminance" maskUnits="userSpaceOnUse" x="0" y="0" width="16" height="18">
<path fill-rule="evenodd" clip-rule="evenodd" d="M0.5 0.666809H15.6372V17.2583H0.5V0.666809Z" fill="white"/>
</mask>
<g mask="url(#mask0_1568_5915)">
<path fill-rule="evenodd" clip-rule="evenodd" d="M11.2575 1.91663L4.85 1.91996C2.91 1.93163 1.75 3.13163 1.75 5.13079V12.7941C1.75 14.8066 2.92083 16.0083 4.88 16.0083L11.2875 16.0058C13.2275 15.9941 14.3875 14.7925 14.3875 12.7941V5.13079C14.3875 3.11829 13.2175 1.91663 11.2575 1.91663ZM4.88083 17.2583C2.26083 17.2583 0.5 15.4641 0.5 12.7941V5.13079C0.5 2.43663 2.20583 0.685793 4.84583 0.669959L11.2567 0.666626H11.2575C13.8775 0.666626 15.6375 2.46079 15.6375 5.13079V12.7941C15.6375 15.4875 13.9317 17.2391 11.2917 17.2558L4.88083 17.2583Z" fill="#9E9E9E"/>
</g>
</svg>
